<?xml version="1.0" encoding="UTF-8"?>
<svg xmlns="http://www.w3.org/2000/svg" xmlns:xlink="http://www.w3.org/1999/xlink" version="1.1" id="Capa_1" x="0px" y="0px" viewBox="0 0 512 512" style="enable-background:new 0 0 512 512;" xml:space="preserve" width="512" height="512">
<g>
	<path style="fill:none;stroke:#000000;stroke-width:15;stroke-linecap:round;stroke-linejoin:round;stroke-miterlimit:10;" d="&#10;&#9;&#9;M327.7,186.794c-0.59,0.049-1.18,0.168-1.756,0.36l-17.836,5.945c-1.858,0.619-3.889,0.494-5.645-0.373&#10;&#9;&#9;c-4.066-2.006-8.28-3.757-12.621-5.233c-1.852-0.629-3.374-1.976-4.249-3.726l-8.405-16.809c-1.27-2.541-3.867-4.146-6.708-4.146&#10;&#9;&#9;h-28.96c-2.841,0-5.438,1.605-6.708,4.146l-8.405,16.809c-0.875,1.75-2.396,3.097-4.249,3.726&#10;&#9;&#9;c-4.342,1.475-8.556,3.226-12.621,5.233c-1.757,0.867-3.787,0.992-5.645,0.373l-17.836-5.945c-2.695-0.898-5.666-0.197-7.675,1.812&#10;&#9;&#9;l-20.478,20.478c-2.009,2.009-2.71,4.98-1.812,7.675l5.945,17.836c0.62,1.858,0.494,3.889-0.373,5.645&#10;&#9;&#9;c-2.006,4.066-3.757,8.28-5.233,12.621c-0.629,1.852-1.976,3.374-3.726,4.249l-16.809,8.405c-2.541,1.27-4.146,3.867-4.146,6.708&#10;&#9;&#9;v28.96c0,2.841,1.605,5.438,4.146,6.708l16.809,8.405c1.75,0.875,3.097,2.396,3.726,4.249c1.475,4.342,3.226,8.556,5.233,12.621&#10;&#9;&#9;c0.867,1.757,0.992,3.787,0.373,5.645l-5.945,17.836c-0.898,2.695-0.197,5.666,1.812,7.675l20.478,20.478&#10;&#9;&#9;c2.009,2.009,4.98,2.71,7.675,1.812l17.836-5.945c1.858-0.62,3.889-0.494,5.645,0.373c4.066,2.006,8.28,3.757,12.621,5.233&#10;&#9;&#9;c1.852,0.629,3.374,1.976,4.249,3.726l8.405,16.809c1.27,2.541,3.867,4.146,6.708,4.146h28.96c2.841,0,5.438-1.605,6.708-4.146&#10;&#9;&#9;l8.405-16.809c0.875-1.75,2.396-3.097,4.249-3.726c4.342-1.475,8.556-3.226,12.621-5.233c1.757-0.867,3.787-0.992,5.645-0.373&#10;&#9;&#9;l17.836,5.945c2.695,0.898,5.666,0.197,7.675-1.812l20.478-20.478c2.009-2.009,2.71-4.98,1.812-7.675l-5.945-17.836&#10;&#9;&#9;c-0.62-1.858-0.494-3.889,0.373-5.645c2.006-4.066,3.757-8.28,5.233-12.621c0.629-1.852,1.976-3.374,3.726-4.249l16.809-8.405&#10;&#9;&#9;c2.541-1.27,4.146-3.867,4.146-6.708v-28.96c0-2.841-1.605-5.438-4.146-6.708l-16.809-8.405c-1.75-0.875-3.097-2.396-3.726-4.249&#10;&#9;&#9;c-1.475-4.342-3.226-8.556-5.233-12.621c-0.867-1.757-0.992-3.787-0.373-5.645l5.945-17.836c0.898-2.695,0.197-5.666-1.812-7.675"/>
	
		<polyline style="fill:none;stroke:#000000;stroke-width:15;stroke-linecap:round;stroke-linejoin:round;stroke-miterlimit:10;" points="&#10;&#9;&#9;209.406,256 178.344,287.062 209.406,318.125 &#9;"/>
	
		<polyline style="fill:none;stroke:#000000;stroke-width:15;stroke-linecap:round;stroke-linejoin:round;stroke-miterlimit:10;" points="&#10;&#9;&#9;302.594,256 333.656,287.062 302.594,318.125 &#9;"/>
	
		<line style="fill:none;stroke:#000000;stroke-width:15;stroke-linecap:round;stroke-linejoin:round;stroke-miterlimit:10;" x1="271.531" y1="256" x2="240.469" y2="318.125"/>
	<path style="fill:none;stroke:#000000;stroke-width:15;stroke-linecap:round;stroke-linejoin:round;stroke-miterlimit:10;" d="&#10;&#9;&#9;M126.366,457.906H479.5c13.807,0,25-11.193,25-25V116.219"/>
	<path style="fill:none;stroke:#000000;stroke-width:15;stroke-linecap:round;stroke-linejoin:round;stroke-miterlimit:10;" d="&#10;&#9;&#9;M7.5,116.219v316.688c0,13.807,11.193,25,25,25h58.866"/>
	<path style="fill:none;stroke:#000000;stroke-width:15;stroke-linecap:round;stroke-linejoin:round;stroke-miterlimit:10;" d="&#10;&#9;&#9;M55.653,54.094H32.5c-13.807,0-25,11.193-25,25v37.125h497V79.094c0-13.807-11.193-25-25-25H90.653"/>
	<g>
		<g>
			
				<line style="fill:none;stroke:#000000;stroke-width:15;stroke-linecap:round;stroke-linejoin:round;stroke-miterlimit:10;" x1="473.438" y1="85.156" x2="473.438" y2="85.156"/>
		</g>
	</g>
	<g>
		<g>
			
				<line style="fill:none;stroke:#000000;stroke-width:15;stroke-linecap:round;stroke-linejoin:round;stroke-miterlimit:10;" x1="442.375" y1="85.156" x2="442.375" y2="85.156"/>
		</g>
	</g>
	<g>
		<g>
			
				<line style="fill:none;stroke:#000000;stroke-width:15;stroke-linecap:round;stroke-linejoin:round;stroke-miterlimit:10;" x1="411.312" y1="85.156" x2="411.312" y2="85.156"/>
		</g>
	</g>
</g>















</svg>
