<svg id="Layer_1" enable-background="new 0 0 68 68" height="512" viewBox="0 0 68 68" width="512" xmlns="http://www.w3.org/2000/svg"><g><g><path d="m62.84311 49.10776c-.31574-.4505-.93505-.55947-1.38799-.2452-.4505.31622-.55996.937-.24471 1.3875 1.77864 2.53953 2.68013 5.24933 2.68013 8.05352 0 .72196-.02335 4.06227-.05789 5.70372h-21.7584l2.39941-23.94904c4.74848 1.16431 8.98972 3.09949 12.30765 5.64984.43493.33471 1.06154.25298 1.39723-.18292.3352-.43591.25346-1.06154-.18293-1.39723-6.59111-5.06581-15.60418-7.28495-23.85288-7.30905-.03922-.00012-.0779-.00365-.11713-.00365-.2565-.00012-.51338.01934-.77019.02335-15.07106.23493-31.13865 8.23325-31.13865 21.46498 0 .05935.02578 6.16298.10314 6.81781.05935.50108.48455.87861.98954.87861h61.58161c.50499 0 .93019-.37753.98954-.87862.07735-.65191.10265-6.75845.10265-6.81781 0-3.2216-1.02311-6.31476-3.04013-9.19581zm-27.38458-4.76867h-2.93797l-2.7348-5.31549c1.1875-.10947 2.06973-.18752 3.81781-.20275.16954-.00158.33891-.01034.50845-.01009 1.87462.00442 3.1004.11977 4.08222.21114zm-31.34907 13.96449c0-8.24398 7.86865-15.49939 19.68122-18.30686l2.40696 24.01058h-22.0298c-.03503-1.6434-.05838-4.98273-.05838-5.70372zm27.1929 5.70371 1.34907-15.63804c.04768-.5478-.35855-1.03138-.90684-1.07809-.55315-.05254-1.03089.35807-1.07808.90684l-1.3639 15.80929h-1.10217l-2.44959-24.43481c.48435-.09067 1.06346-.19608 1.91426-.31562l3.36189 6.53394c.16507.32138.54417.54099.88592.54099h3.23911l1.52469 17.6755zm7.37412 0-1.59317-18.47141 3.23036-6.27852c.96284.13567 1.46866.2268 2.20038.36925l-2.44254 24.38068z"/><path d="m57.41815 51.63172h-10.47093c-.55023 0-.99635.44563-.99635.99635s.44612.99635.99635.99635h10.47093c.55023 0 .99635-.44564.99635-.99635s-.44612-.99635-.99635-.99635z"/><path d="m18.22233 21.82291 2.64461.39406c.30017 1.10144.73851 2.15909 1.30869 3.15738l-1.59085 2.14935c-.29385.39601-.25249.9477.09633 1.29701l3.12576 3.12625c.34833.34736.89905.39017 1.29749.09632l2.14935-1.59183c.99586.5692 2.05303 1.00706 3.15641 1.30674l.39504 2.64558c.07298.48845.49234.84943.98565.84943h4.41888c.49331 0 .91267-.36098.98565-.84943l.39504-2.64558c1.10338-.29968 2.16055-.73753 3.15641-1.30674l.50645.37558c.44369.32887 1.06641.23547 1.39382-.20822.32742-.44174.23449-1.06544-.20774-1.39334l-1.04354-.77256c-.33276-.24714-.78229-.26076-1.13063-.03795-1.16176.74434-2.43152 1.26976-3.7728 1.56069-.40477.08854-.71272.41742-.77402.82705l-.36731 2.4578h-2.70153l-.36731-2.4578c-.0613-.40963-.36925-.73851-.77402-.82705-1.34128-.29093-2.61104-.81635-3.7728-1.56069-.34882-.22282-.79835-.20919-1.13062.03795l-1.99611 1.47799-1.91146-1.91194 1.4775-1.9966c.24617-.33179.26125-.78132.03843-1.12965-.74629-1.16565-1.27268-2.43542-1.5641-3.77524-.08806-.40477-.41693-.71223-.82656-.77353l-2.45682-.36585v-2.70299l2.45682-.36585c.40866-.0613.73802-.36877.82656-.77256.29482-1.34566.82072-2.61542 1.5641-3.77621.22282-.34833.20774-.79786-.03843-1.12965l-1.4775-1.9966 1.91146-1.91194 1.99611 1.47799c.33228.24714.78181.26076 1.13062.03795 1.16176-.74434 2.43153-1.26976 3.7728-1.56069.40477-.08854.71272-.41742.77402-.82705l.36731-2.4578h2.70153l.36731 2.4578c.0613.40963.36926.73851.77402.82705 1.34128.29093 2.61105.81635 3.7728 1.56069.34834.22282.79786.2092 1.13063-.03795l1.99611-1.47799 1.91097 1.91194-1.47701 1.9966c-.24617.33179-.26125.78132-.03843 1.12965.74386 1.16176 1.26976 2.4325 1.56361 3.77621.08854.40379.41742.71126.82656.77256l2.45731.36585v2.70299l-2.45731.36585c-.40963.0613-.73899.36974-.82656.77451-.29093 1.33787-.81683 2.60764-1.56361 3.77426-.22282.34833-.20773.79786.03843 1.12965l1.47701 1.9966-1.23425 1.23474c-.3892.3892-.3892 1.0197 0 1.4089s1.0197.3892 1.40891 0l1.8414-1.84189c.34882-.34931.38969-.901.09632-1.29701l-1.59037-2.14935c.57066-.9983 1.00851-2.05595 1.3082-3.15738l2.6451-.39406c.48796-.07298.84943-.49234.84943-.98565v-4.42131c0-.49331-.36147-.91267-.84943-.98565l-2.64607-.39406c-.30066-1.10435-.73899-2.16103-1.30722-3.15641l1.59037-2.15033c.29336-.39601.25249-.9477-.09632-1.29701l-3.12527-3.12625c-.34833-.34833-.90002-.39115-1.29749-.09633l-2.14936 1.59183c-.99586-.5692-2.05303-1.00705-3.15641-1.30674l-.39504-2.64558c-.073-.48844-.49237-.84942-.98568-.84942h-4.41888c-.49331 0-.91267.36098-.98565.84943l-.39504 2.64558c-1.10338.29968-2.16055.73753-3.15641 1.30674l-2.14935-1.59183c-.39747-.29385-.94819-.25103-1.29749.09633l-3.12576 3.12625c-.34882.34931-.39017.901-.09633 1.29701l1.59085 2.14935c-.56823.99538-1.00608 2.05303-1.30771 3.15738l-2.64559.39406c-.48796.07297-.84943.49234-.84943.98565v4.42131c.00001.49332.36148.91268.84944.98565z"/><path d="m34 24.23109c-3.09025 0-5.60448-2.51423-5.60448-5.60448 0-.55072-.44612-.99635-.99635-.99635s-.99635.44563-.99635.99635c0 4.18876 3.40793 7.59718 7.59718 7.59718s7.59766-3.40842 7.59766-7.59718-3.40841-7.59718-7.59766-7.59718c-2.6164 0-5.0163 1.32036-6.41936 3.53199-.29482.46509-.15714 1.081.30747 1.37582s1.08051.15665 1.37485-.30747c1.03576-1.63269 2.80662-2.60764 4.73705-2.60764 3.09073 0 5.60496 2.51423 5.60496 5.60448s-2.51424 5.60448-5.60497 5.60448z"/></g></g></svg>