<svg id="Layer_1" height="512" viewBox="0 0 512 512" width="512" xmlns="http://www.w3.org/2000/svg" data-name="Layer 1"><path d="m335.19 478.4h-158.91a8 8 0 1 1 0-16h158.91a8 8 0 0 1 0 16z"/><path d="m457 373.93h-402a8 8 0 1 1 0-16h402a8 8 0 0 1 0 16z"/><path d="m337.38 397.79h-11.27a8 8 0 0 1 0-16h11.27a8 8 0 0 1 0 16z"/><path d="m378.28 397.79h-11.28a8 8 0 0 1 0-16h11.27a8 8 0 0 1 0 16z"/><path d="m419.18 397.79h-12.06a8 8 0 0 1 0-16h12.06a8 8 0 0 1 0 16z"/><path d="m209.15 478.4a8 8 0 0 1 -7.79-9.86l13.58-56.73a8 8 0 0 1 15.56 3.73l-13.58 56.72a8 8 0 0 1 -7.77 6.14z"/><path d="m295 472-11.55-56.73a8 8 0 0 1 15.68-3.19l11.57 56.72a8 8 0 0 1 -15.7 3.2z"/><path d="m443 421.68h-374a21.58 21.58 0 0 1 -22-22.07v-228.86c0-12.61 9.68-22.49 22.05-22.49h43.88a8 8 0 0 1 0 16h-43.93c-4.78 0-6.05 4.08-6.05 6.49v228.86c0 1.82.59 6.07 6.05 6.07h374a5.86 5.86 0 0 0 6.05-6.07v-228.86c0-3.14-2.43-6.49-6.05-6.49h-43.89a8 8 0 0 1 0-16h43.89a22.3 22.3 0 0 1 22 22.49v228.86a21.83 21.83 0 0 1 -22 22.07z"/><path d="m375.3 314.42h-238.6a31.86 31.86 0 0 1 -31.81-31.83v-180.19a8 8 0 0 1 8-8h286.22a8 8 0 0 1 8 8v180.19a31.86 31.86 0 0 1 -31.81 31.83zm-254.41-204v172.17a15.84 15.84 0 0 0 15.81 15.83h238.6a15.84 15.84 0 0 0 15.81-15.83v-172.19z"/><path d="m399.11 110.4a8 8 0 0 1 -8-8v-37a15.84 15.84 0 0 0 -15.81-15.8h-238.6a15.84 15.84 0 0 0 -15.81 15.83v37a8 8 0 0 1 -16 0v-37a31.86 31.86 0 0 1 31.81-31.83h238.6a31.86 31.86 0 0 1 31.81 31.83v37a8 8 0 0 1 -8 7.97z"/><path d="m370.89 80h-20.27a8 8 0 0 1 0-16h20.27a8 8 0 1 1 0 16z"/><path d="m325.43 80h-20.26a8 8 0 0 1 0-16h20.26a8 8 0 1 1 0 16z"/><path d="m265.9 80h-124.79a8 8 0 0 1 0-16h124.79a8 8 0 1 1 0 16z"/><path d="m370.16 281.5h-228.32a8 8 0 0 1 -8-8v-50.64a8 8 0 0 1 8-8h228.32a8 8 0 0 1 8 8v50.64a8 8 0 0 1 -8 8zm-220.32-16h212.32v-34.64h-212.32z"/><path d="m219.38 204.89a37.27 37.27 0 0 1 -37.2-37.24v-33.42a8 8 0 1 1 16 0v33.42a21.21 21.21 0 1 0 42.41 0v-33.42a8 8 0 1 1 16 0v33.42a37.27 37.27 0 0 1 -37.21 37.24z"/><path d="m315.48 200.16-45.72-59.46a8 8 0 1 1 12.68-9.7l45.73 59.46a8 8 0 0 1 -12.69 9.75z"/><path d="m271.22 201.63a8 8 0 0 1 -1.46-11.22l45.72-59.41a8 8 0 0 1 12.69 9.75l-45.73 59.46a8 8 0 0 1 -11.22 1.42z"/></svg>