<?xml version="1.0" encoding="UTF-8"?>
<svg xmlns="http://www.w3.org/2000/svg" fill="white" id="Layer_1" data-name="Layer 1" viewBox="0 0 64 64" width="512" height="512"><path d="M63.51,39.7h-1V33h.76a.48.48,0,0,0,.49-.49v-4a.48.48,0,0,0-.49-.49H59.45V22.82a4.43,4.43,0,0,0-3.93-4.39V13.69a.5.5,0,0,0-1,0v4.74h0a4.43,4.43,0,0,0-3.93,4.39V28H47.27V19.84a.45.45,0,0,0,.08-.26.44.44,0,0,0-.08-.25V13.57H48.8a.49.49,0,0,0,.35-.15.54.54,0,0,0,.14-.36c-.15-4.24-1.47-7.18-3.94-8.75V1.83a.5.5,0,0,0-1,0V4.31h0c-2.63,1.56-4,4.42-4.12,8.75a.54.54,0,0,0,.14.36.47.47,0,0,0,.35.15h1.71v5.52H21.88V13.57h1.51a.49.49,0,0,0,.36-.15.54.54,0,0,0,.14-.36C23.75,8.82,22.43,5.89,20,4.31h0V1.83a.5.5,0,0,0-1,0V4.31c-2.63,1.56-4,4.42-4.12,8.75a.54.54,0,0,0,.14.36.47.47,0,0,0,.35.15H17v6h0V28H13.69V22.82a4.43,4.43,0,0,0-3.93-4.39h0V13.69a.49.49,0,0,0-1,0v4.74a4.44,4.44,0,0,0-3.94,4.39V28H.49a.5.5,0,0,0-.49.49v4A.49.49,0,0,0,.49,33H2.32v6.71H.49a.5.5,0,0,0-.49.49v4a.5.5,0,0,0,.49.49H2.32V62.17a.51.51,0,0,0,.5.49H62a.49.49,0,0,0,.49-.49V49.1h0V44.64h1a.5.5,0,0,0,.49-.49v-4A.48.48,0,0,0,63.51,39.7ZM13.45,30.12a.5.5,0,0,1,.49-.5.49.49,0,0,1,.49.5v.73a.49.49,0,0,1-.49.5.49.49,0,0,1-.49-.5ZM5.82,24H12.7v4H5.82ZM12,30.12v.73a.49.49,0,0,1-.49.5.49.49,0,0,1-.49-.5v-.73a.49.49,0,0,1,.49-.5A.5.5,0,0,1,12,30.12Zm-2.47,0v.73a.49.49,0,1,1-1,0v-.73a.49.49,0,1,1,1,0ZM7,30.12v.73a.49.49,0,1,1-1,0v-.73a.49.49,0,1,1,1,0Zm-3.45,0a.5.5,0,1,1,1,0v.73a.5.5,0,1,1-1,0ZM17,61.67H13.89v-4.1a3.83,3.83,0,0,0-7.66,0v4.1H3.31V49.59H17ZM17,48.6H3.31v-4H17ZM3.59,42.53v-.74a.5.5,0,0,1,1,0v.74a.5.5,0,0,1-1,0Zm2.47,0v-.74a.49.49,0,0,1,1,0v.74a.49.49,0,1,1-1,0Zm2.46,0v-.74a.49.49,0,0,1,1,0v.74a.49.49,0,1,1-1,0Zm2.47,0v-.74a.49.49,0,0,1,.49-.49.5.5,0,0,1,.49.49v.74a.48.48,0,0,1-.49.49A.48.48,0,0,1,11,42.53Zm2.46,0v-.74a.5.5,0,0,1,.49-.49.49.49,0,0,1,.49.49v.74a.48.48,0,0,1-.49.49A.48.48,0,0,1,13.45,42.53ZM17,39.69H3.31V33H17Zm3.86-14.18V61.67H18V44.25a.34.34,0,0,0,0-.1v-4a.34.34,0,0,0,0-.1V32.59a.34.34,0,0,0,0-.1v-4a.34.34,0,0,0,0-.1V20.08h2.87Zm0-6.42H18V13.57h2.87ZM42.44,61.67H39.62v-1A22.53,22.53,0,0,0,32.5,44.3a.53.53,0,0,0-.7,0,22.63,22.63,0,0,0-6.93,16.23v1.12h-3v-21H42.44ZM24,37.62V36.46a.48.48,0,0,1,.49-.49.49.49,0,0,1,.49.49v1.16a.5.5,0,0,1-.49.49A.48.48,0,0,1,24,37.62Zm3.86,0V36.46a.49.49,0,1,1,1,0v1.16a.49.49,0,0,1-1,0Zm3.87,0V36.46a.48.48,0,0,1,.49-.49.48.48,0,0,1,.49.49v1.16a.49.49,0,0,1-.49.49A.48.48,0,0,1,31.68,37.62Zm3.86,0V36.46a.5.5,0,0,1,1,0v1.16a.5.5,0,0,1-1,0Zm3.87,0V36.46a.5.5,0,0,1,1,0v1.16a.5.5,0,0,1-1,0Zm3-4.36H21.88V26H42.44Zm0-8.23H21.88v-5H42.44Zm17.32,5.09a.49.49,0,1,1,1,0v.73a.49.49,0,1,1-1,0ZM51.58,24h6.89v4H51.58Zm6.7,6.12v.73a.5.5,0,1,1-1,0v-.73a.5.5,0,1,1,1,0Zm-2.46,0v.73a.5.5,0,1,1-1,0v-.73a.5.5,0,1,1,1,0Zm-2.47,0v.73a.5.5,0,1,1-1,0v-.73a.5.5,0,1,1,1,0Zm-3.45,0a.51.51,0,0,1,.49-.5.49.49,0,0,1,.49.5v.73a.49.49,0,0,1-.49.5.5.5,0,0,1-.49-.5ZM46.29,61.67H43.42V40.35a.41.41,0,0,0,0-.16.47.47,0,0,0,0-.17v-6.1a.5.5,0,0,0,0-.34V25.65a.53.53,0,0,0,0-.12.5.5,0,0,0,0-.13V20.08h2.87Zm0-42.58H43.42V13.57h2.87ZM61.52,61.67H58.26v-4.1a3.83,3.83,0,1,0-7.66,0v4.1H47.27V49.59H61.52Zm0-13.07H47.27v-4H61.52ZM49.9,42.53v-.74a.5.5,0,0,1,.49-.49.49.49,0,0,1,.49.49v.74a.48.48,0,0,1-.49.49A.49.49,0,0,1,49.9,42.53Zm2.46,0v-.74a.5.5,0,0,1,1,0v.74a.5.5,0,0,1-1,0Zm2.47,0v-.74a.5.5,0,0,1,1,0v.74a.5.5,0,0,1-1,0Zm2.46,0v-.74a.5.5,0,0,1,1,0v.74a.5.5,0,0,1-1,0Zm2.47,0v-.74a.49.49,0,0,1,1,0v.74a.49.49,0,0,1-1,0Zm1.76-2.83H47.27V33H61.52Z"/><path d="M24.43,31a.49.49,0,0,0,.5-.49V29.33a.5.5,0,1,0-1,0v1.16A.49.49,0,0,0,24.43,31Z"/><path d="M28.3,31a.49.49,0,0,0,.49-.49V29.33a.49.49,0,1,0-1,0v1.16A.49.49,0,0,0,28.3,31Z"/><path d="M32.17,31a.49.49,0,0,0,.49-.49V29.33a.49.49,0,1,0-1,0v1.16A.49.49,0,0,0,32.17,31Z"/><path d="M36,31a.49.49,0,0,0,.49-.49V29.33a.5.5,0,1,0-1,0v1.16A.49.49,0,0,0,36,31Z"/><path d="M39.9,31a.49.49,0,0,0,.5-.49V29.33a.5.5,0,1,0-1,0v1.16A.49.49,0,0,0,39.9,31Z"/></svg>
