<?xml version="1.0" encoding="UTF-8"?>
<svg id="Layer_1" data-name="Layer 1" xmlns="http://www.w3.org/2000/svg" viewBox="0 0 50 50">
  <defs>
    <style>
      .cls-1 {
        fill: #fff;
      }
    </style>
  </defs>
  <path class="cls-1" d="m45.81,13.92l-1.67.87c.3.95.97,2.47,1.46,3.53h.51l-.19-1.38,1-.32c-.14-.75-.66-1.85-1.1-2.7Z"/>
  <path class="cls-1" d="m38.05,27.22s-.03,0-.05,0c-1.31,0-3.76,1.5-4.23,1.79.15.06.27.12.38.2.38-.11,2.81-.75,4.22.16.25-.23.38-.49.38-.78.01-.64-.57-1.24-.7-1.37Z"/>
  <path class="cls-1" d="m36.4,24.78c-.29,1.43-2.33,3.35-2.65,3.64.01.08.02.16.01.24,0,.04,0,.08,0,.12.65-.4,2.97-1.79,4.28-1.76l.24-.41c-.06-1.29-1.51-1.74-1.88-1.84Z"/>
  <path class="cls-1" d="m33.55,27.93c.06.08.11.17.14.28.49-.46,2.38-2.31,2.54-3.59,0,0,0,0,0-.01-.02-1.06-.39-1.86-1.1-2.41-.14-.11-.29-.2-.42-.27.24,2.09-.09,3.6-.41,4.51-.3.85-.64,1.34-.76,1.49Z"/>
  <path class="cls-1" d="m38.52,30.89c.16-.67-.15-1.23-.21-1.33-1.22-.82-3.39-.34-3.99-.19.05.06.09.12.12.19,0,0,0,0,0,0,.87-.21,1.69-.13,2.25.24.77.5.94,1.57.78,2.39.58-.36.93-.79,1.05-1.29Z"/>
  <path class="cls-1" d="m34.09,21.71l-.42.34s-.02.02-.04.02l-.65.16c.56,2.73.14,4.92.04,5.38.09.01.19.05.28.1.04.03.08.06.12.09.27-.37,1.54-2.32,1.09-5.95-.2-.08-.35-.12-.42-.14Z"/>
  <path class="cls-1" d="m37.5,2.12c1.36,2.04-.64,6.94-1.49,9.03-.05.13-.1.24-.14.34-.83,3.03-.21,5.21-.04,5.71l1.77-1.1c-.54-2.2-.06-4.11.45-6.13.04-.15.08-.3.11-.46.67-2.69.71-5.07.13-7.08-.01-.05.01-.1.07-.12.05-.01.1.01.12.07.59,2.04.55,4.46-.13,7.18-.04.15-.08.31-.11.46-.53,2.09-.98,3.9-.44,6.05l1.89.57c-.12-1.82,0-3.65.12-5.43.2-2.89.4-5.87-.49-8.78-.02-.05.01-.1.06-.12.05-.02.1.01.12.06.91,2.94.7,5.94.5,8.85-.12,1.81-.25,3.69-.11,5.54l.52,3.53,1.78.92,2.3.66.3-.3s.1-.04.14,0l.47.47,1.51.9.5-.05.29-.42c-1.03-.74-2.31-4.15-2.31-4.15h.01c-.49-1.06-1.13-2.52-1.42-3.46-.4.15-1.91.69-2.64.64-.03,0-.05-.02-.07-.04s-.02-.05-.02-.08c0-.01.36-1.48.45-3.75.08-2.1-.06-5.33-1.17-8.82-.02-.05.01-.1.06-.12.05-.02.1.01.12.06,1.12,3.52,1.26,6.78,1.18,8.9-.08,1.92-.34,3.27-.43,3.67.82-.02,2.45-.63,2.54-.67l1.74-.9c-.33-.63-.61-1.08-.61-1.08l.42-1.38-.13-.51h.01s-1.76-2.09-1.76-2.09c-.02-.02-.02-.04-.02-.07,0-.03.21-3.12-1.95-5.32-.04-.04-.04-.1,0-.14.04-.04.1-.04.14,0,1.16,1.19,1.64,2.61,1.85,3.6.19.94.17,1.66.16,1.84l1.77,2.1.61-.27-.84-1.57c.05-.56.02-1.08-.07-1.56h0c-.02-.09-.03-.18-.05-.27,0-.01,0-.03,0-.04,0,0,0-.02,0-.02-.43-1.94-1.45-3.25-2.64-4.13-.97-.72-2.05-1.16-3.01-1.42-1.46-.4-2.61-.4-2.61-.4-.54,0-1.01.05-1.42.15.02.02.05.04.07.07.85.02,1.48.32,1.86.9Z"/>
  <path class="cls-1" d="m35,32.49l-.51-.21c-.23.21-.34.42-.32.62.04.4.54.67.59.69,1.49.61,2.41-1.13,2.47-1.25.01-.04.02-.09.04-.13.18-.79.01-1.82-.68-2.26-.71-.46-1.64-.32-2.09-.22.03.13.03.25.02.35.3-.13.73-.17,1.29.14,0,0,.92.74.4,1.85,0,0-.59.63-1.21.42Z"/>
  <path class="cls-1" d="m34.9,1.37c-1.21.51-1.76,1.41-1.97,1.85.43-.11.89-.19,1.33-.2l.64-1.66Z"/>
  <path class="cls-1" d="m32.42,27.83c.11-.13.25-.2.41-.23.08-.33.54-2.54-.03-5.33l-1.1.27c.86,1.82.63,4.72.58,5.24.05.02.1.04.14.05Z"/>
  <path class="cls-1" d="m31.83,27.66c.09.01.18.03.26.05.05-.6.24-3.42-.58-5.13l-.24.06s-.06,0-.08-.02c-.02-.02-.04-.04-.04-.07l-.07-.93c-.51-1.12-1.96-2.97-2.07-3.11-.11-.09-.72-.6-.62-1.04,0-.03.02-.07.04-.1-.76-.42-1.32-.27-1.67-.04,0,0-.4.33-.28.78l.28.42s4.01,2.32,4.39,7.77c0,0-.06.66-.18,1.58.2-.2.49-.28.87-.23Z"/>
  <path class="cls-1" d="m27.92,8.75c-.26,1.38.67,2.04.67,2.04l.67-.58.48.14.53-1.21h1.59c1.01.43.82,1.16.82,1.16-.34,1.06-2.12,1.01-2.12,1.01-.14-1.25-.58-.43-.58-.43l-.63,1.83c.03,1.05.65,1.26.99,1.3l3.18-3.28,1.58-2.69c1.97-3.33.74-4.99.73-5-.02-.02-.02-.05-.02-.08.22-1.04-.21-1.54-.49-1.74-.06.02-.13.04-.19.06l-.73,1.88s-.05.06-.09.06c-.48,0-1,.1-1.49.23,0,.02,0,.03,0,.03-.03,0-.05,0-.08,0-.38.11-.72.23-1,.34-.07.05-.11.08-.11.08l-.08.39,1.32.19s.05.02.07.04c.02.02.02.05.01.08,0,.03-.21.68-1.25,1.08-.01,0-.02,0-.03,0-.04,0-.08-.02-.09-.06-.02-.05,0-.11.06-.12.71-.27.99-.66,1.09-.85l-1.2-.18-.17.87-2.96,1.03c-1.32.42-1,1.54-1,1.54l.51.84Z"/>
  <path class="cls-1" d="m35.68,17.36c-.08-.2-.92-2.56,0-5.93,0,0,0,0,0-.01.04-.1.09-.22.14-.35.77-1.89,2.81-6.89,1.51-8.85-.32-.48-.84-.75-1.54-.8.06.09.12.19.16.31,1.28.83,1.22,2.32.97,3.8-.56,3.23-2.24,6.11-3.87,8.9-.7,1.2-1.43,2.45-2.05,3.69l.33,4.29.21-.05s0,0,0,0l2.03-.5,2.35-1.91-.24-2.61Z"/>
  <path class="cls-1" d="m29.86,17.14l1.01.83c.61-1.22,1.32-2.44,2.01-3.62,1.62-2.77,3.3-5.64,3.85-8.84.21-1.25.35-2.64-.69-3.47.05.25.05.56-.02.92.08.12.33.55.39,1.28.07.79-.08,2.11-1.13,3.9l-1.59,2.7s0,.01-.01.02l-3.12,3.23-.18.8.29.43-.82,1.79.02.03Z"/>
  <path class="cls-1" d="m28.74,17.32c-.09.05-.14.12-.16.2-.07.29.38.72.56.86,0,0,.01,0,.02.02.06.07,1.25,1.57,1.89,2.74l-.23-2.97-.58-.47.07.11c-.54-.53-1.2-.53-1.56-.47Z"/>
  <path class="cls-1" d="m46.88,42.44v-4.05h-3c.28-.19.55-.4.8-.63l-.03-.37.58-.34.06-.58.45-.26-.03-.51.39-.42-.13-.84.32-.32-.29-.61.39-.32-.13-.9.26-.45-.16-.84-.13-1-.03-.93.03-.87.1-.26-.03-.55.03-.45-.13-.64.1-.55-.26-.64.06-.32-.22-.32.1-.51.96-.51-.16-.37-1.51-.89s-.01,0-.02-.01l-.41-.41-.27.27s-.06.03-.09.02l-2.36-.67s-.01,0-.02,0l-1.83-.95s-.05-.04-.05-.07l-.52-3.53-1.97-.6-1.84,1.15.24,2.62s-.01.06-.04.08l-1.8,1.46c.22.06.59.2.97.49.52.4,1.15,1.16,1.18,2.55.38.09,2,.59,2.05,2.05,0,.02,0,.04-.01.05l-.25.42c.19.18.74.8.73,1.48,0,.34-.15.65-.44.91.11.2.37.76.2,1.43-.15.59-.59,1.1-1.32,1.51-.11.2-.83,1.47-2.01,1.47-.22,0-.46-.04-.71-.15,0,0,0,0,0,0-.03-.01-.65-.33-.7-.85-.02-.24.09-.49.32-.72l-.15-.06-.29-.71.14-.93s.1-.15.28-.28c.02-.05.1-.31-.03-.58-.11-.22-.34-.39-.68-.49h0c-.05-.02-.08-.07-.06-.12,0-.01.01-.03.02-.04.01-.06.02-.24.03-.32,0-.26-.06-.61-.37-.8-.24-.15-.52-.09-.67.13-.03.04-.08.05-.12.03-.01,0-1.08-.53-1.41.15-.01.03-.04.05-.07.06-.12.85-.29,1.85-.51,2.74-.21,1.09-.3,1.99-.3,2.75h0s-.51,2.81,2.1,4.67h-2.91v4.05h-2.84v6.56h2.73v-3.91c0-.19.15-.34.34-.34h1.77v-4.19c0-.19.15-.34.34-.34h13.04c.19,0,.34.15.34.34v4.19h1.77c.19,0,.34.15.34.34v3.91h2.63v-6.56h-2.84Z"/>
  <polygon class="cls-1" points="44.65 40.56 31.62 40.56 31.62 45.09 29.51 45.09 29.51 49 46.76 49 46.76 45.09 44.65 45.09 44.65 40.56"/>
  <path class="cls-1" d="m.27,49h4.43S9.16,24.35,24.44,13.82c1.76-1.3,3.21-2,4.16-2.38C6.36,18.83.27,49,.27,49Z"/>
</svg>