<svg width="587" height="142" viewBox="0 0 587 142" fill="none" xmlns="http://www.w3.org/2000/svg">
<path d="M545.657 142C538.191 142 531.657 140.933 526.057 138.8C520.457 136.667 515.791 134.067 512.057 131C508.324 127.8 505.257 124.867 502.857 122.2L521.657 105.8C523.924 109.133 526.991 112.333 530.857 115.4C534.857 118.467 539.857 120 545.857 120C550.257 120 553.657 119.133 556.057 117.4C558.591 115.667 559.857 113.667 559.857 111.4C559.857 109.267 559.057 107.6 557.457 106.4C555.857 105.067 553.724 103.933 551.057 103C548.391 102.067 545.391 101.133 542.057 100.2C538.324 99.2668 534.457 98.1335 530.457 96.8001C526.457 95.3335 522.724 93.4668 519.257 91.2001C515.791 88.9335 512.991 86.0668 510.857 82.6002C508.724 79.0001 507.657 74.5335 507.657 69.2001C507.657 60.2668 511.124 53.0668 518.057 47.6002C525.124 42.1335 534.324 39.4001 545.657 39.4001C553.657 39.4001 560.924 40.9335 567.457 44.0002C573.991 47.0668 579.191 51.5335 583.057 57.4001L566.057 70.8001C563.657 67.3335 560.591 64.6668 556.857 62.8001C553.124 60.8001 549.191 59.8001 545.057 59.8001C541.591 59.8001 538.724 60.4668 536.457 61.8001C534.324 63.0001 533.257 64.6001 533.257 66.6002C533.257 68.0668 533.791 69.3335 534.857 70.4001C535.924 71.3335 537.657 72.2001 540.057 73.0002C542.457 73.8002 545.724 74.7335 549.857 75.8001C553.724 76.7335 557.791 77.8668 562.057 79.2001C566.324 80.5335 570.324 82.4002 574.057 84.8001C577.924 87.0668 580.991 90.1335 583.257 94.0002C585.657 97.7335 586.857 102.467 586.857 108.2C586.857 114.867 585.124 120.8 581.657 126C578.324 131.067 573.524 135 567.257 137.8C561.124 140.6 553.924 142 545.657 142Z" fill="#2D3748"/>
<path d="M447.459 142C438.659 142 431.059 140.6 424.659 137.8C418.392 135 413.259 131.2 409.259 126.4C405.392 121.6 402.525 116.2 400.659 110.2C398.925 104.067 398.059 97.7335 398.059 91.2001C398.059 84.9335 398.925 78.7335 400.659 72.6002C402.525 66.4668 405.325 60.9335 409.059 56.0002C412.792 50.9335 417.725 46.9335 423.859 44.0002C429.992 40.9335 437.325 39.4001 445.859 39.4001C453.459 39.4001 460.125 40.7335 465.859 43.4002C471.725 45.9335 476.592 49.5335 480.459 54.2001C484.325 58.7335 487.192 64.1335 489.059 70.4001C491.059 76.6668 492.059 83.4001 492.059 90.6002C492.059 91.8002 491.992 93.2001 491.859 94.8001C491.859 96.4001 491.725 98.2001 491.459 100.2H425.459C426.259 106.333 428.859 110.933 433.259 114C437.659 116.933 442.925 118.4 449.059 118.4C453.992 118.4 458.925 117.533 463.859 115.8C468.792 114.067 473.125 111.6 476.859 108.4L489.459 127.6C484.525 131.067 479.925 133.867 475.659 136C471.525 138.133 467.192 139.667 462.659 140.6C458.259 141.533 453.192 142 447.459 142ZM465.059 86.4002C465.325 85.3335 465.525 84.2668 465.659 83.2001C465.925 82.1335 466.059 81.1335 466.059 80.2001C466.059 77.5335 465.525 75.1335 464.459 73.0002C463.525 70.7335 462.192 68.8001 460.459 67.2001C458.725 65.6002 456.659 64.4001 454.259 63.6001C451.859 62.6668 449.192 62.2001 446.259 62.2001C441.592 62.2001 437.725 63.1335 434.659 65.0001C431.725 66.7335 429.459 68.9335 427.859 71.6002C426.392 74.2668 425.459 77.0001 425.059 79.8001H474.259L465.059 86.4002Z" fill="#2D3748"/>
<path d="M370.013 142C363.08 142 357.28 139.933 352.613 135.8C347.947 131.533 345.613 124.8 345.613 115.6V0.600098H373.013V110.2C373.013 112.6 373.613 114.333 374.813 115.4C376.013 116.333 377.547 116.8 379.413 116.8C380.613 116.8 381.747 116.667 382.813 116.4C383.88 116.133 385.013 115.867 386.213 115.6V139C383.28 140.067 380.413 140.8 377.613 141.2C374.813 141.733 372.28 142 370.013 142Z" fill="#2D3748"/>
<path d="M285.53 142C277.264 142 270.064 140.6 263.93 137.8C257.93 134.867 252.864 131 248.73 126.2C244.73 121.267 241.73 115.733 239.73 109.6C237.73 103.467 236.73 97.1335 236.73 90.6002C236.73 84.0668 237.73 77.7335 239.73 71.6002C241.73 65.4668 244.73 60.0002 248.73 55.2001C252.864 50.4002 257.93 46.6002 263.93 43.8001C270.064 40.8668 277.264 39.4001 285.53 39.4001C295.664 39.4001 304.464 41.8001 311.93 46.6002C319.397 51.4001 324.997 58.8001 328.73 68.8001L304.73 78.4001C303.264 73.8668 300.997 70.2002 297.93 67.4002C294.997 64.6002 290.864 63.2001 285.53 63.2001C280.464 63.2001 276.33 64.5335 273.13 67.2001C270.064 69.8668 267.797 73.3335 266.33 77.6002C264.864 81.7335 264.13 86.0668 264.13 90.6002C264.13 95.1335 264.864 99.5335 266.33 103.8C267.797 108.067 270.064 111.533 273.13 114.2C276.33 116.867 280.464 118.2 285.53 118.2C290.864 118.2 294.997 116.8 297.93 114C300.997 111.2 303.264 107.533 304.73 103L328.73 112.6C324.997 122.467 319.397 129.867 311.93 134.8C304.464 139.6 295.664 142 285.53 142Z" fill="#2D3748"/>
<path d="M160.08 140V41.4001H187.68V68.2001L183.88 68.4002C184.28 62.8002 185.88 57.8001 188.68 53.4001C191.613 49.0001 195.28 45.6002 199.68 43.2001C204.08 40.6668 208.613 39.4001 213.28 39.4001C216.613 39.4001 219.813 39.8668 222.88 40.8001C225.947 41.7335 229.213 43.2668 232.68 45.4001L219.48 70.2001C218.013 69.2668 216.08 68.4668 213.68 67.8001C211.413 67.0002 209.08 66.6002 206.68 66.6002C204.28 66.6002 201.947 67.0668 199.68 68.0002C197.413 68.9335 195.413 70.3335 193.68 72.2001C191.947 73.9335 190.547 76.2668 189.48 79.2001C188.813 81.0668 188.28 83.4668 187.88 86.4002C187.613 89.2002 187.48 93.4002 187.48 99.0002V140H160.08Z" fill="#2D3748"/>
<path d="M123.19 140C115.624 140 109.49 133.866 109.49 126.3V55.1001C109.49 47.5338 115.624 41.4001 123.19 41.4001C130.756 41.4001 136.89 47.5338 136.89 55.1001V126.3C136.89 133.866 130.756 140 123.19 140ZM122.29 27.0001C115 27.0001 109.09 21.0903 109.09 13.8001C109.09 6.50994 115 0.600098 122.29 0.600098H124.49C131.78 0.600098 137.69 6.50994 137.69 13.8001C137.69 21.0903 131.78 27.0001 124.49 27.0001H122.29Z" fill="#2D3748"/>
<path d="M49.007 142C40.7404 142 33.5404 140.6 27.407 137.8C21.407 134.867 16.3404 131 12.207 126.2C8.20703 121.267 5.20703 115.733 3.20703 109.6C1.20703 103.467 0.207031 97.1335 0.207031 90.6002C0.207031 84.0668 1.20703 77.7335 3.20703 71.6002C5.20703 65.4668 8.20703 60.0002 12.207 55.2001C16.3404 50.4002 21.407 46.6002 27.407 43.8001C33.5404 40.8668 40.7404 39.4001 49.007 39.4001C59.1404 39.4001 67.9404 41.8001 75.407 46.6002C82.8737 51.4001 88.4737 58.8001 92.207 68.8001L68.207 78.4001C66.7404 73.8668 64.4737 70.2002 61.407 67.4002C58.4737 64.6002 54.3404 63.2001 49.007 63.2001C43.9404 63.2001 39.807 64.5335 36.607 67.2001C33.5404 69.8668 31.2737 73.3335 29.807 77.6002C28.3404 81.7335 27.607 86.0668 27.607 90.6002C27.607 95.1335 28.3404 99.5335 29.807 103.8C31.2737 108.067 33.5404 111.533 36.607 114.2C39.807 116.867 43.9404 118.2 49.007 118.2C54.3404 118.2 58.4737 116.8 61.407 114C64.4737 111.2 66.7404 107.533 68.207 103L92.207 112.6C88.4737 122.467 82.8737 129.867 75.407 134.8C67.9404 139.6 59.1404 142 49.007 142Z" fill="#2D3748"/>
<rect x="109" y="41" width="28" height="99" fill="#2D3748"/>
</svg>
