<svg id="Layer_1" viewBox="0 0 64 64" xmlns="http://www.w3.org/2000/svg" data-name="Layer 1"><path d="m51.18 42.31c.91.29 1.89-.21 2.18-1.11l1.59-4.88c.17-.52-.12-1.09-.64-1.26l-2.21-.72c.09-.78.14-1.56.14-2.34s-.05-1.56-.14-2.34l1.51-.49c.44-.14.8-.45 1.01-.86s.25-.88.1-1.32l-1.36-4.18c-.29-.91-1.28-1.41-2.18-1.11l-1.51.49c-.77-1.36-1.69-2.64-2.75-3.79l.94-1.29c.56-.77.39-1.86-.38-2.42l-3.56-2.59c-.77-.56-1.86-.39-2.42.38l-.94 1.29c-1.43-.66-2.92-1.15-4.45-1.45v-1.59c0-.96-.78-1.73-1.73-1.73h-4.4c-.96 0-1.73.78-1.73 1.73v1.59c-1.53.3-3.02.79-4.45 1.45l-.94-1.29c-.56-.77-1.64-.94-2.42-.38l-3.56 2.59c-.38.27-.62.67-.69 1.13s.04.92.31 1.29l.93 1.29c-1.06 1.15-1.98 2.42-2.75 3.79l-1.51-.49c-.44-.14-.91-.11-1.32.1s-.72.57-.86 1.01l-1.36 4.18c-.14.44-.11.91.1 1.32s.57.72 1.01.86l1.51.49c-.09.78-.14 1.56-.14 2.34s.05 1.56.14 2.34l-2.21.72c-.52.17-.81.74-.64 1.26l1.59 4.88c.14.44.45.8.86 1.01s.88.25 1.32.1l1.51-.49c.77 1.37 1.69 2.64 2.75 3.79l-.93 1.29c-.27.38-.38.83-.31 1.29s.32.86.69 1.13l3.56 2.59c.77.56 1.86.39 2.42-.38l.94-1.29c1.43.66 2.92 1.15 4.45 1.45v1.59c0 .96.78 1.73 1.73 1.73h4.4c.96 0 1.73-.78 1.73-1.73v-1.59c1.53-.3 3.02-.79 4.45-1.45l.93 1.29c.56.77 1.65.95 2.42.38l3.56-2.59c.77-.56.95-1.65.38-2.42l-.93-1.29c1.06-1.15 1.98-2.42 2.75-3.79zm-3.16-1.64c-.74 1.35-1.65 2.6-2.7 3.72-.57.61-.64 1.54-.15 2.21l.91 1.25-3.13 2.27-.91-1.25c-.49-.67-1.39-.9-2.15-.54-1.39.66-2.86 1.14-4.36 1.42-.82.15-1.42.87-1.42 1.7v1.54h-3.87v-1.54c0-.83-.6-1.55-1.42-1.7-1.5-.28-2.97-.76-4.37-1.42-.76-.36-1.66-.13-2.15.54l-.91 1.25-3.13-2.27.91-1.25c.49-.67.43-1.6-.15-2.21-1.05-1.12-1.96-2.37-2.7-3.72-.4-.73-1.27-1.08-2.05-.82l-1.47.48-1.19-3.68 1.47-.48c.79-.26 1.29-1.04 1.18-1.88-.1-.76-.15-1.54-.15-2.3s.05-1.53.15-2.3c.11-.83-.39-1.62-1.18-1.88l-1.47-.48 1.19-3.68 1.47.48c.79.26 1.65-.09 2.06-.82.74-1.35 1.65-2.6 2.7-3.72.58-.61.64-1.54.15-2.21l-.91-1.25 3.13-2.27.91 1.25c.49.67 1.39.9 2.15.54 1.39-.66 2.86-1.14 4.36-1.42.82-.15 1.42-.87 1.42-1.7v-1.54h3.87v1.54c0 .83.6 1.55 1.42 1.7 1.5.28 2.97.76 4.37 1.42.76.36 1.66.13 2.15-.54l.91-1.25 3.13 2.27-.91 1.25c-.49.67-.43 1.6.15 2.21 1.05 1.12 1.96 2.37 2.7 3.72.4.73 1.27 1.08 2.05.82l1.47-.48 1.2 3.68-1.47.48c-.79.26-1.29 1.04-1.18 1.88.1.76.15 1.54.15 2.3s-.05 1.53-.15 2.3c-.11.83.39 1.62 1.18 1.88l1.47.48-1.2 3.68-1.47-.48c-.79-.26-1.65.09-2.05.82z"/><path d="m32 17c-8.27 0-15 6.73-15 15s6.73 15 15 15 15-6.73 15-15-6.73-15-15-15zm0 28c-7.17 0-13-5.83-13-13s5.83-13 13-13 13 5.83 13 13-5.83 13-13 13z"/><path d="m34.3 29.5h1.5v5h-1.5v2h5v-2h-1.5v-5h1.5v-2h-5z"/><path d="m29.5 27.5h-2c-.47 0-.87.33-.98.78l-1.83 8.22h2.05l.44-2h2.62l.44 2h2.05l-1.83-8.22c-.1-.46-.51-.78-.98-.78zm-1.86 5 .67-3h.4l.67 3h-1.73z"/><path d="m46.55 57.09c-11.04 6.41-24.97 4.78-34.28-3.87l1.91.27.28-1.98-4.95-.71c-.32-.04-.63.06-.85.28s-.33.54-.28.85l.71 4.95 1.98-.28-.29-2.02c5.89 5.53 13.53 8.41 21.25 8.41 5.33 0 10.69-1.37 15.53-4.18l-1-1.73z"/><path d="m58.98 16.71-1.74.99c6.23 10.99 4.54 24.81-4.01 34.03l.27-1.91-1.98-.28-.71 4.95c-.04.31.06.63.28.85.19.19.44.29.71.29h.14l4.95-.71-.28-1.98-2.05.29c9.26-9.85 11.11-24.71 4.42-36.51z"/><path d="m16.71 5.02.99 1.74c10.99-6.23 24.81-4.54 34.03 4.02l-1.91-.27-.28 1.98 4.95.71s.09 0 .14 0c.26 0 .52-.1.71-.29.22-.22.33-.54.28-.85l-.71-4.95-1.98.28.29 2.05c-9.84-9.26-24.71-11.11-36.51-4.42z"/><path d="m10.5 14.18 1.98.28.71-4.95c.04-.31-.06-.63-.28-.85s-.53-.33-.85-.28l-4.95.71.28 1.98 2.05-.29c-9.26 9.84-11.11 24.71-4.42 36.51l1.74-.99c-6.23-10.99-4.54-24.81 4.02-34.03l-.27 1.91z"/></svg>